<?xml version="1.0" encoding="UTF-8" standalone="no"?>
<!-- Created with Inkscape (http://www.inkscape.org/) -->

<svg
   xmlns:dc="http://purl.org/dc/elements/1.1/"
   xmlns:cc="http://creativecommons.org/ns#"
   xmlns:rdf="http://www.w3.org/1999/02/22-rdf-syntax-ns#"
   xmlns:svg="http://www.w3.org/2000/svg"
   xmlns="http://www.w3.org/2000/svg"
   xmlns:sodipodi="http://sodipodi.sourceforge.net/DTD/sodipodi-0.dtd"
   xmlns:inkscape="http://www.inkscape.org/namespaces/inkscape"
   width="512"
   height="512"
   viewBox="0 0 135.46666 135.46667"
   version="1.1"
   id="svg6800"
   inkscape:version="0.92.2 5c3e80d, 2017-08-06"
   sodipodi:docname="drawing-3.svg">
  <title
     id="title7953">compact-disk</title>
  <defs
     id="defs6794" />
  <sodipodi:namedview
     id="base"
     pagecolor="#ffffff"
     bordercolor="#666666"
     borderopacity="1.0"
     inkscape:pageopacity="0.0"
     inkscape:pageshadow="2"
     inkscape:zoom="0.5"
     inkscape:cx="234.16824"
     inkscape:cy="480"
     inkscape:document-units="mm"
     inkscape:current-layer="layer1"
     showgrid="false"
     units="px"
     inkscape:window-width="1280"
     inkscape:window-height="751"
     inkscape:window-x="60"
     inkscape:window-y="0"
     inkscape:window-maximized="0" />
  <metadata
     id="metadata6797">
    <rdf:RDF>
      <cc:Work
         rdf:about="">
        <dc:format>image/svg+xml</dc:format>
        <dc:type
           rdf:resource="http://purl.org/dc/dcmitype/StillImage" />
        <dc:title>compact-disk</dc:title>
        <cc:license
           rdf:resource="http://creativecommons.org/licenses/by/3.0/" />
        <dc:rights>
          <cc:Agent>
            <dc:title>Zlatko Najdenovski</dc:title>
          </cc:Agent>
        </dc:rights>
        <dc:contributor>
          <cc:Agent>
            <dc:title>macmpi</dc:title>
          </cc:Agent>
        </dc:contributor>
        <dc:creator>
          <cc:Agent>
            <dc:title>Zlatko Najdenovski</dc:title>
          </cc:Agent>
        </dc:creator>
        <dc:identifier>https://www.flaticon.com/authors/zlatko-najdenovski</dc:identifier>
        <dc:publisher>
          <cc:Agent>
            <dc:title>Flaticon</dc:title>
          </cc:Agent>
        </dc:publisher>
        <dc:source>https://www.flaticon.com/free-icon/compact-disc_182363</dc:source>
      </cc:Work>
    </rdf:RDF>
  </metadata>
  <g
     inkscape:label="Layer 1"
     inkscape:groupmode="layer"
     id="layer1"
     style="display:inline"
     transform="translate(0,-161.53332)">
    <g
       id="g6935"
       transform="matrix(0.10335261,0,0,0.10335261,41.274858,202.80817)">
      <g
         id="g6933">
        <g
           id="g6931">
          <path
             style="fill:#ffffff"
             inkscape:connector-curvature="0"
             d="m 350.108,251.72 c -4.668,-0.154 -8.678,3.464 -8.866,8.175 -0.051,1.289 -0.145,2.569 -0.265,3.874 -3.994,44.22 -40.525,77.568 -84.975,77.568 -47.053,0 -85.333,-38.281 -85.333,-85.333 0,-47.061 38.281,-85.333 85.333,-85.333 5.111,0 10.24,0.452 15.241,1.357 4.659,0.828 9.079,-2.253 9.916,-6.886 0.836,-4.642 -2.253,-9.079 -6.886,-9.916 -5.999,-1.084 -12.151,-1.621 -18.27,-1.621 -56.465,0 -102.4,45.935 -102.4,102.4 0,56.457 45.935,102.4 102.4,102.4 53.342,0 97.186,-40.03 101.965,-93.073 0.145,-1.57 0.265,-3.149 0.324,-4.745 0.187,-4.711 -3.474,-8.679 -8.184,-8.867 z"
             id="path6915" />
          <path
             style="fill:#ffffff"
             inkscape:connector-curvature="0"
             d="m 318.108,363.567 c -4.088,2.355 -5.478,7.578 -3.123,11.657 l 36.207,62.711 c 1.579,2.739 4.446,4.267 7.398,4.267 1.451,0 2.918,-0.367 4.258,-1.143 4.087,-2.355 5.478,-7.578 3.123,-11.657 l -36.207,-62.711 c -2.364,-4.08 -7.586,-5.488 -11.656,-3.124 z"
             id="path6917" />
          <path
             style="fill:#ffffff"
             inkscape:connector-curvature="0"
             d="m 499.944,213.303 c -4.668,0.649 -7.927,4.958 -7.279,9.626 1.502,10.863 2.27,21.999 2.27,33.075 0,131.746 -107.187,238.933 -238.933,238.933 -131.755,0 -238.933,-107.187 -238.933,-238.933 0,-131.755 107.179,-238.933 238.933,-238.933 28.331,0 55.962,4.813 82.142,14.319 4.437,1.613 9.327,-0.683 10.931,-5.112 1.613,-4.429 -0.674,-9.327 -5.103,-10.931 -28.049,-10.18 -57.651,-15.343 -87.97,-15.343 -141.158,0 -256,114.842 -256,256 0,141.158 114.842,256 256,256 141.158,0 256,-114.842 256,-256 0,-11.861 -0.819,-23.774 -2.432,-35.422 -0.648,-4.667 -5.035,-7.953 -9.626,-7.279 z"
             id="path6919" />
          <path
             style="fill:#ffffff"
             inkscape:connector-curvature="0"
             d="m 429.408,365.973 c 1.348,0.776 2.816,1.143 4.258,1.143 2.953,0 5.82,-1.536 7.398,-4.267 2.355,-4.087 0.956,-9.301 -3.123,-11.665 L 375.23,314.986 c -4.096,-2.372 -9.301,-0.964 -11.657,3.123 -2.355,4.079 -0.956,9.301 3.123,11.657 z"
             id="path6921" />
          <path
             style="fill:#ffffff"
             inkscape:connector-curvature="0"
             d="m 256.002,221.871 c -18.825,0 -34.133,15.309 -34.133,34.133 0,18.816 15.309,34.133 34.133,34.133 18.816,0 34.133,-15.317 34.133,-34.133 0,-18.824 -15.317,-34.133 -34.133,-34.133 z m 0,51.2 c -9.412,0 -17.067,-7.654 -17.067,-17.067 0,-9.412 7.654,-17.067 17.067,-17.067 9.412,0 17.067,7.654 17.067,17.067 0,9.412 -7.655,17.067 -17.067,17.067 z"
             id="path6923" />
          <path
             style="fill:#ffffff"
             inkscape:connector-curvature="0"
             d="m 189.63,149.576 c 1.451,0 2.918,-0.367 4.258,-1.143 4.087,-2.355 5.478,-7.578 3.132,-11.657 L 160.804,74.065 c -2.355,-4.087 -7.586,-5.487 -11.656,-3.123 -4.079,2.355 -5.478,7.578 -3.123,11.656 l 36.207,62.711 c 1.587,2.74 4.454,4.267 7.398,4.267 z"
             id="path6925" />
          <path
             style="fill:#ffffff"
             inkscape:connector-curvature="0"
             d="M 508.717,1.805 C 506.643,0.192 503.93,-0.38 501.395,0.252 L 364.862,34.385 c -3.797,0.956 -6.46,4.369 -6.46,8.286 v 153.6 c 0,14.114 -11.486,25.6 -25.6,25.6 -14.123,0 -25.6,-11.486 -25.6,-25.6 0,-14.123 11.477,-25.6 25.6,-25.6 4.71,0 8.533,-3.823 8.533,-8.533 0,-4.719 -3.823,-8.533 -8.533,-8.533 -23.526,0 -42.667,19.14 -42.667,42.667 0,23.518 19.14,42.667 42.667,42.667 23.526,0 42.667,-19.149 42.667,-42.667 V 86.976 l 104.567,-27.52 c 4.557,-1.203 7.279,-5.871 6.084,-10.428 -1.195,-4.557 -5.871,-7.296 -10.428,-6.084 L 375.469,69.329 V 49.327 L 494.935,19.46 v 142.677 c 0,14.114 -11.486,25.6 -25.6,25.6 -14.123,0 -25.6,-11.486 -25.6,-25.6 0,-14.123 11.477,-25.6 25.6,-25.6 4.71,0 8.533,-3.823 8.533,-8.533 0,-4.719 -3.823,-8.533 -8.533,-8.533 -23.526,0 -42.667,19.14 -42.667,42.667 0,23.518 19.14,42.667 42.667,42.667 23.526,0 42.667,-19.149 42.667,-42.667 V 8.537 c 0,-2.636 -1.212,-5.111 -3.285,-6.732 z"
             id="path6927" />
          <path
             style="fill:#ffffff"
             inkscape:connector-curvature="0"
             d="m 82.588,146.027 c -4.096,-2.364 -9.293,-0.956 -11.656,3.132 -2.355,4.079 -0.956,9.293 3.123,11.657 l 62.711,36.198 c 1.348,0.776 2.816,1.143 4.258,1.143 2.953,0 5.82,-1.527 7.398,-4.267 2.355,-4.079 0.964,-9.301 -3.123,-11.657 z"
             id="path6929" />
        </g>
      </g>
    </g>
    <g
       id="g6937"
       transform="matrix(0.10335261,0,0,0.10335261,87.841526,61.747463)" />
    <g
       id="g6939"
       transform="matrix(0.10335261,0,0,0.10335261,87.841526,61.747463)" />
    <g
       id="g6941"
       transform="matrix(0.10335261,0,0,0.10335261,87.841526,61.747463)" />
    <g
       id="g6943"
       transform="matrix(0.10335261,0,0,0.10335261,87.841526,61.747463)" />
    <g
       id="g6945"
       transform="matrix(0.10335261,0,0,0.10335261,87.841526,61.747463)" />
    <g
       id="g6947"
       transform="matrix(0.10335261,0,0,0.10335261,87.841526,61.747463)" />
    <g
       id="g6949"
       transform="matrix(0.10335261,0,0,0.10335261,87.841526,61.747463)" />
    <g
       id="g6951"
       transform="matrix(0.10335261,0,0,0.10335261,87.841526,61.747463)" />
    <g
       id="g6953"
       transform="matrix(0.10335261,0,0,0.10335261,87.841526,61.747463)" />
    <g
       id="g6955"
       transform="matrix(0.10335261,0,0,0.10335261,87.841526,61.747463)" />
    <g
       id="g6957"
       transform="matrix(0.10335261,0,0,0.10335261,87.841526,61.747463)" />
    <g
       id="g6959"
       transform="matrix(0.10335261,0,0,0.10335261,87.841526,61.747463)" />
    <g
       id="g6961"
       transform="matrix(0.10335261,0,0,0.10335261,87.841526,61.747463)" />
    <g
       id="g6963"
       transform="matrix(0.10335261,0,0,0.10335261,87.841526,61.747463)" />
    <g
       id="g6965"
       transform="matrix(0.10335261,0,0,0.10335261,87.841526,61.747463)" />
  </g>
</svg>
